<mxfile host="app.diagrams.net" modified="2021-04-13T23:23:29.535Z" agent="5.0 (Windows NT 10.0; Win64; x64) AppleWebKit/537.36 (KHTML, like Gecko) Chrome/89.0.4389.114 Safari/537.36" etag="ZKrZotBpLYUxQP1MWWbK" version="14.5.10" type="github">
  <diagram id="QgYptBNZTKJ4Chk5L_ai" name="Page-1">
    <mxGraphModel dx="2173" dy="2088" grid="1" gridSize="10" guides="1" tooltips="1" connect="1" arrows="1" fold="1" page="1" pageScale="1" pageWidth="827" pageHeight="1169" math="0" shadow="0">
      <root>
        <mxCell id="0" />
        <mxCell id="1" parent="0" />
        <mxCell id="0sxTZYZ9TAEr3WeOtwBN-1" value="&lt;font style=&quot;font-size: 16px&quot;&gt;user&lt;/font&gt;" style="whiteSpace=wrap;html=1;align=center;" parent="1" vertex="1">
          <mxGeometry x="290" y="20" width="100" height="40" as="geometry" />
        </mxCell>
        <mxCell id="0sxTZYZ9TAEr3WeOtwBN-2" value="follows" style="shape=rhombus;perimeter=rhombusPerimeter;whiteSpace=wrap;html=1;align=center;" parent="1" vertex="1">
          <mxGeometry x="120" y="21" width="71" height="49" as="geometry" />
        </mxCell>
        <mxCell id="0sxTZYZ9TAEr3WeOtwBN-6" value="&lt;font style=&quot;font-size: 14px&quot;&gt;Hindi_Songs&lt;/font&gt;" style="whiteSpace=wrap;html=1;align=center;" parent="1" vertex="1">
          <mxGeometry x="20" y="560" width="100" height="40" as="geometry" />
        </mxCell>
        <mxCell id="0sxTZYZ9TAEr3WeOtwBN-7" value="&lt;font style=&quot;font-size: 15px&quot;&gt;FilmMakers&lt;/font&gt;" style="whiteSpace=wrap;html=1;align=center;" parent="1" vertex="1">
          <mxGeometry x="450" y="150" width="100" height="40" as="geometry" />
        </mxCell>
        <mxCell id="0sxTZYZ9TAEr3WeOtwBN-8" value="&lt;font style=&quot;font-size: 16px&quot;&gt;Artist&lt;/font&gt;" style="whiteSpace=wrap;html=1;align=center;" parent="1" vertex="1">
          <mxGeometry x="140" y="150" width="100" height="40" as="geometry" />
        </mxCell>
        <mxCell id="0sxTZYZ9TAEr3WeOtwBN-9" value="&lt;font style=&quot;font-size: 14px&quot;&gt;English_Songs&lt;/font&gt;" style="whiteSpace=wrap;html=1;align=center;" parent="1" vertex="1">
          <mxGeometry x="140" y="560" width="100" height="40" as="geometry" />
        </mxCell>
        <mxCell id="0sxTZYZ9TAEr3WeOtwBN-10" value="&lt;font style=&quot;font-size: 14px&quot;&gt;Arabic_Songs&lt;/font&gt;" style="whiteSpace=wrap;html=1;align=center;" parent="1" vertex="1">
          <mxGeometry x="520" y="560" width="100" height="40" as="geometry" />
        </mxCell>
        <mxCell id="0sxTZYZ9TAEr3WeOtwBN-11" value="&lt;font style=&quot;font-size: 14px&quot;&gt;Turkish_Songs&lt;/font&gt;" style="whiteSpace=wrap;html=1;align=center;" parent="1" vertex="1">
          <mxGeometry x="264" y="560" width="100" height="40" as="geometry" />
        </mxCell>
        <mxCell id="0sxTZYZ9TAEr3WeOtwBN-12" value="&lt;font style=&quot;font-size: 14px&quot;&gt;Korean_Songs&lt;/font&gt;" style="whiteSpace=wrap;html=1;align=center;" parent="1" vertex="1">
          <mxGeometry x="390" y="560" width="100" height="40" as="geometry" />
        </mxCell>
        <mxCell id="0sxTZYZ9TAEr3WeOtwBN-13" value="" style="verticalLabelPosition=bottom;verticalAlign=top;html=1;shape=mxgraph.flowchart.on-page_reference;" parent="1" vertex="1">
          <mxGeometry x="324" y="90" width="40" height="40" as="geometry" />
        </mxCell>
        <mxCell id="0sxTZYZ9TAEr3WeOtwBN-14" value="" style="shape=link;html=1;rounded=0;width=7;" parent="1" edge="1">
          <mxGeometry relative="1" as="geometry">
            <mxPoint x="343.5" y="60" as="sourcePoint" />
            <mxPoint x="344" y="90" as="targetPoint" />
          </mxGeometry>
        </mxCell>
        <mxCell id="0sxTZYZ9TAEr3WeOtwBN-15" value="" style="resizable=0;html=1;align=right;verticalAlign=bottom;" parent="0sxTZYZ9TAEr3WeOtwBN-14" connectable="0" vertex="1">
          <mxGeometry x="1" relative="1" as="geometry" />
        </mxCell>
        <mxCell id="0sxTZYZ9TAEr3WeOtwBN-22" value="" style="endArrow=none;html=1;rounded=0;" parent="1" edge="1">
          <mxGeometry relative="1" as="geometry">
            <mxPoint x="234" y="150" as="sourcePoint" />
            <mxPoint x="324" y="110" as="targetPoint" />
          </mxGeometry>
        </mxCell>
        <mxCell id="0sxTZYZ9TAEr3WeOtwBN-23" value="" style="endArrow=none;html=1;rounded=0;exitX=0.25;exitY=0;exitDx=0;exitDy=0;" parent="1" source="0sxTZYZ9TAEr3WeOtwBN-7" edge="1">
          <mxGeometry relative="1" as="geometry">
            <mxPoint x="440" y="170" as="sourcePoint" />
            <mxPoint x="364" y="110" as="targetPoint" />
          </mxGeometry>
        </mxCell>
        <mxCell id="0sxTZYZ9TAEr3WeOtwBN-24" value="O" style="text;html=1;strokeColor=none;fillColor=none;align=center;verticalAlign=middle;whiteSpace=wrap;rounded=0;fontStyle=1;fontSize=17;" parent="1" vertex="1">
          <mxGeometry x="324" y="100" width="40" height="20" as="geometry" />
        </mxCell>
        <mxCell id="0sxTZYZ9TAEr3WeOtwBN-26" value="&lt;font style=&quot;font-size: 12px&quot;&gt;UsersFollowing&lt;/font&gt;" style="ellipse;whiteSpace=wrap;html=1;align=center;fontSize=17;" parent="1" vertex="1">
          <mxGeometry x="-40" y="200" width="60" height="30" as="geometry" />
        </mxCell>
        <mxCell id="0sxTZYZ9TAEr3WeOtwBN-27" value="&lt;font style=&quot;font-size: 12px&quot;&gt;followers&lt;/font&gt;" style="ellipse;whiteSpace=wrap;html=1;align=center;fontSize=17;" parent="1" vertex="1">
          <mxGeometry x="450" y="40" width="60" height="30" as="geometry" />
        </mxCell>
        <mxCell id="0sxTZYZ9TAEr3WeOtwBN-28" value="&lt;font style=&quot;font-size: 12px&quot;&gt;Password&lt;/font&gt;" style="ellipse;whiteSpace=wrap;html=1;align=center;fontSize=17;" parent="1" vertex="1">
          <mxGeometry x="470" y="10" width="60" height="30" as="geometry" />
        </mxCell>
        <mxCell id="0sxTZYZ9TAEr3WeOtwBN-29" value="&lt;font style=&quot;font-size: 12px&quot;&gt;LoginID&lt;/font&gt;" style="ellipse;whiteSpace=wrap;html=1;align=center;fontSize=17;" parent="1" vertex="1">
          <mxGeometry x="410" y="-8" width="60" height="30" as="geometry" />
        </mxCell>
        <mxCell id="0sxTZYZ9TAEr3WeOtwBN-30" value="&lt;font style=&quot;font-size: 12px&quot;&gt;UserName&lt;/font&gt;" style="ellipse;whiteSpace=wrap;html=1;align=center;fontSize=17;" parent="1" vertex="1">
          <mxGeometry x="380" y="-70" width="60" height="30" as="geometry" />
        </mxCell>
        <mxCell id="0sxTZYZ9TAEr3WeOtwBN-31" value="&lt;font style=&quot;font-size: 12px&quot;&gt;UserID&lt;/font&gt;" style="ellipse;whiteSpace=wrap;html=1;align=center;fontStyle=4;fontSize=17;" parent="1" vertex="1">
          <mxGeometry x="440" y="-50" width="60" height="30" as="geometry" />
        </mxCell>
        <mxCell id="0sxTZYZ9TAEr3WeOtwBN-33" value="&lt;font style=&quot;font-size: 12px&quot;&gt;TotalSongs&lt;/font&gt;" style="ellipse;whiteSpace=wrap;html=1;align=center;fontSize=17;" parent="1" vertex="1">
          <mxGeometry x="20" y="170" width="60" height="30" as="geometry" />
        </mxCell>
        <mxCell id="0sxTZYZ9TAEr3WeOtwBN-34" value="&lt;font style=&quot;font-size: 12px&quot;&gt;Password&lt;/font&gt;" style="ellipse;whiteSpace=wrap;html=1;align=center;fontSize=17;" parent="1" vertex="1">
          <mxGeometry x="-40" y="150" width="60" height="30" as="geometry" />
        </mxCell>
        <mxCell id="0sxTZYZ9TAEr3WeOtwBN-35" value="&lt;font style=&quot;font-size: 12px&quot;&gt;LoginID&lt;/font&gt;" style="ellipse;whiteSpace=wrap;html=1;align=center;fontSize=17;" parent="1" vertex="1">
          <mxGeometry y="115.5" width="60" height="30" as="geometry" />
        </mxCell>
        <mxCell id="0sxTZYZ9TAEr3WeOtwBN-36" value="&lt;font style=&quot;font-size: 12px&quot;&gt;ArtistName&lt;/font&gt;" style="ellipse;whiteSpace=wrap;html=1;align=center;fontSize=17;" parent="1" vertex="1">
          <mxGeometry x="-50" y="80" width="60" height="30" as="geometry" />
        </mxCell>
        <mxCell id="0sxTZYZ9TAEr3WeOtwBN-37" value="&lt;font style=&quot;font-size: 12px&quot;&gt;ArtistID&lt;/font&gt;" style="ellipse;whiteSpace=wrap;html=1;align=center;fontStyle=4;fontSize=17;" parent="1" vertex="1">
          <mxGeometry x="20" y="60" width="60" height="40" as="geometry" />
        </mxCell>
        <mxCell id="0sxTZYZ9TAEr3WeOtwBN-38" value="&lt;font style=&quot;font-size: 12px&quot;&gt;FilmDescription&lt;/font&gt;" style="ellipse;whiteSpace=wrap;html=1;align=center;fontSize=17;" parent="1" vertex="1">
          <mxGeometry x="664" y="214" width="60" height="30" as="geometry" />
        </mxCell>
        <mxCell id="0sxTZYZ9TAEr3WeOtwBN-39" value="&lt;font style=&quot;font-size: 12px&quot;&gt;FilmName&lt;/font&gt;" style="ellipse;whiteSpace=wrap;html=1;align=center;fontSize=17;" parent="1" vertex="1">
          <mxGeometry x="620" y="180" width="60" height="30" as="geometry" />
        </mxCell>
        <mxCell id="0sxTZYZ9TAEr3WeOtwBN-40" value="&lt;font style=&quot;font-size: 12px&quot;&gt;Password&lt;/font&gt;" style="ellipse;whiteSpace=wrap;html=1;align=center;fontSize=17;" parent="1" vertex="1">
          <mxGeometry x="670" y="155" width="60" height="30" as="geometry" />
        </mxCell>
        <mxCell id="0sxTZYZ9TAEr3WeOtwBN-41" value="&lt;font style=&quot;font-size: 12px&quot;&gt;LoginID&lt;/font&gt;" style="ellipse;whiteSpace=wrap;html=1;align=center;fontSize=17;" parent="1" vertex="1">
          <mxGeometry x="610" y="130" width="60" height="30" as="geometry" />
        </mxCell>
        <mxCell id="0sxTZYZ9TAEr3WeOtwBN-42" value="&lt;font style=&quot;font-size: 12px&quot;&gt;FilmMakerID&lt;/font&gt;" style="ellipse;whiteSpace=wrap;html=1;align=center;fontSize=17;" parent="1" vertex="1">
          <mxGeometry x="664" y="100" width="60" height="30" as="geometry" />
        </mxCell>
        <mxCell id="0sxTZYZ9TAEr3WeOtwBN-43" value="FilmID" style="ellipse;whiteSpace=wrap;html=1;align=center;fontStyle=4;fontSize=12;" parent="1" vertex="1">
          <mxGeometry x="590" y="80" width="60" height="40" as="geometry" />
        </mxCell>
        <mxCell id="0sxTZYZ9TAEr3WeOtwBN-45" value="" style="line;strokeWidth=1;rotatable=0;dashed=0;labelPosition=right;align=left;verticalAlign=middle;spacingTop=0;spacingLeft=6;points=[];portConstraint=eastwest;rounded=0;sketch=0;" parent="1" vertex="1">
          <mxGeometry x="190" y="40" width="100" height="10" as="geometry" />
        </mxCell>
        <mxCell id="0sxTZYZ9TAEr3WeOtwBN-48" value="" style="endArrow=none;html=1;rounded=0;" parent="1" edge="1">
          <mxGeometry relative="1" as="geometry">
            <mxPoint x="155" y="150" as="sourcePoint" />
            <mxPoint x="154.91" y="70" as="targetPoint" />
          </mxGeometry>
        </mxCell>
        <mxCell id="0sxTZYZ9TAEr3WeOtwBN-49" value="signed by&lt;br/&gt;" style="shape=rhombus;perimeter=rhombusPerimeter;whiteSpace=wrap;html=1;align=center;rounded=0;sketch=0;" parent="1" vertex="1">
          <mxGeometry x="302" y="145.5" width="88" height="59" as="geometry" />
        </mxCell>
        <mxCell id="0sxTZYZ9TAEr3WeOtwBN-50" value="" style="line;strokeWidth=1;rotatable=0;dashed=0;labelPosition=right;align=left;verticalAlign=middle;spacingTop=0;spacingLeft=6;points=[];portConstraint=eastwest;rounded=0;sketch=0;" parent="1" vertex="1">
          <mxGeometry x="390" y="170" width="60" height="10" as="geometry" />
        </mxCell>
        <mxCell id="0sxTZYZ9TAEr3WeOtwBN-51" value="" style="line;strokeWidth=1;rotatable=0;dashed=0;labelPosition=right;align=left;verticalAlign=middle;spacingTop=0;spacingLeft=6;points=[];portConstraint=eastwest;rounded=0;sketch=0;" parent="1" vertex="1">
          <mxGeometry x="241" y="170" width="60" height="10" as="geometry" />
        </mxCell>
        <mxCell id="0sxTZYZ9TAEr3WeOtwBN-52" value="composed by&lt;br/&gt;" style="shape=rhombus;perimeter=rhombusPerimeter;whiteSpace=wrap;html=1;align=center;rounded=0;sketch=0;" parent="1" vertex="1">
          <mxGeometry x="146" y="244" width="88" height="59" as="geometry" />
        </mxCell>
        <mxCell id="0sxTZYZ9TAEr3WeOtwBN-53" value="product by&lt;br/&gt;" style="shape=rhombus;perimeter=rhombusPerimeter;whiteSpace=wrap;html=1;align=center;rounded=0;sketch=0;" parent="1" vertex="1">
          <mxGeometry x="456" y="250" width="88" height="59" as="geometry" />
        </mxCell>
        <mxCell id="0sxTZYZ9TAEr3WeOtwBN-54" value="&lt;font style=&quot;font-size: 16px&quot;&gt;Song&lt;/font&gt;" style="whiteSpace=wrap;html=1;align=center;" parent="1" vertex="1">
          <mxGeometry x="296" y="360" width="100" height="40" as="geometry" />
        </mxCell>
        <mxCell id="0sxTZYZ9TAEr3WeOtwBN-55" value="" style="endArrow=none;html=1;rounded=0;exitX=0.5;exitY=1;exitDx=0;exitDy=0;entryX=0.75;entryY=0;entryDx=0;entryDy=0;" parent="1" source="0sxTZYZ9TAEr3WeOtwBN-53" target="0sxTZYZ9TAEr3WeOtwBN-54" edge="1">
          <mxGeometry relative="1" as="geometry">
            <mxPoint x="501" y="369" as="sourcePoint" />
            <mxPoint x="400" y="360" as="targetPoint" />
          </mxGeometry>
        </mxCell>
        <mxCell id="0sxTZYZ9TAEr3WeOtwBN-57" value="" style="endArrow=none;html=1;rounded=0;exitX=0.25;exitY=0;exitDx=0;exitDy=0;entryX=0.5;entryY=1;entryDx=0;entryDy=0;" parent="1" source="0sxTZYZ9TAEr3WeOtwBN-54" target="0sxTZYZ9TAEr3WeOtwBN-52" edge="1">
          <mxGeometry relative="1" as="geometry">
            <mxPoint x="245" y="330" as="sourcePoint" />
            <mxPoint x="140" y="361" as="targetPoint" />
          </mxGeometry>
        </mxCell>
        <mxCell id="0sxTZYZ9TAEr3WeOtwBN-65" value="" style="shape=link;html=1;rounded=0;width=10;" parent="1" source="0sxTZYZ9TAEr3WeOtwBN-54" edge="1">
          <mxGeometry relative="1" as="geometry">
            <mxPoint x="345.40999999999997" y="390" as="sourcePoint" />
            <mxPoint x="345" y="430" as="targetPoint" />
          </mxGeometry>
        </mxCell>
        <mxCell id="0sxTZYZ9TAEr3WeOtwBN-66" value="" style="resizable=0;html=1;align=right;verticalAlign=bottom;" parent="0sxTZYZ9TAEr3WeOtwBN-65" connectable="0" vertex="1">
          <mxGeometry x="1" relative="1" as="geometry" />
        </mxCell>
        <mxCell id="0sxTZYZ9TAEr3WeOtwBN-67" value="" style="ellipse;whiteSpace=wrap;html=1;rounded=0;sketch=0;" parent="1" vertex="1">
          <mxGeometry x="328" y="430" width="36" height="40" as="geometry" />
        </mxCell>
        <mxCell id="0sxTZYZ9TAEr3WeOtwBN-69" value="&lt;font style=&quot;font-size: 17px&quot;&gt;&lt;b&gt;U&lt;/b&gt;&lt;/font&gt;" style="text;html=1;strokeColor=none;fillColor=none;align=center;verticalAlign=middle;whiteSpace=wrap;rounded=0;sketch=0;" parent="1" vertex="1">
          <mxGeometry x="327" y="440" width="40" height="20" as="geometry" />
        </mxCell>
        <mxCell id="0sxTZYZ9TAEr3WeOtwBN-70" value="" style="endArrow=none;html=1;exitX=0.75;exitY=0;exitDx=0;exitDy=0;entryX=0.075;entryY=0;entryDx=0;entryDy=0;entryPerimeter=0;" parent="1" source="0sxTZYZ9TAEr3WeOtwBN-6" target="0sxTZYZ9TAEr3WeOtwBN-69" edge="1">
          <mxGeometry width="50" height="50" relative="1" as="geometry">
            <mxPoint x="130" y="500" as="sourcePoint" />
            <mxPoint x="300" y="230" as="targetPoint" />
            <Array as="points" />
          </mxGeometry>
        </mxCell>
        <mxCell id="0sxTZYZ9TAEr3WeOtwBN-71" value="" style="endArrow=none;html=1;entryX=0;entryY=0.75;entryDx=0;entryDy=0;exitX=0.75;exitY=0;exitDx=0;exitDy=0;" parent="1" source="0sxTZYZ9TAEr3WeOtwBN-9" target="0sxTZYZ9TAEr3WeOtwBN-69" edge="1">
          <mxGeometry width="50" height="50" relative="1" as="geometry">
            <mxPoint x="184" y="560" as="sourcePoint" />
            <mxPoint x="234" y="510" as="targetPoint" />
            <Array as="points" />
          </mxGeometry>
        </mxCell>
        <mxCell id="0sxTZYZ9TAEr3WeOtwBN-72" value="" style="endArrow=none;html=1;entryX=0;entryY=1;entryDx=0;entryDy=0;exitX=0.617;exitY=0.026;exitDx=0;exitDy=0;exitPerimeter=0;" parent="1" source="0sxTZYZ9TAEr3WeOtwBN-11" target="0sxTZYZ9TAEr3WeOtwBN-67" edge="1">
          <mxGeometry width="50" height="50" relative="1" as="geometry">
            <mxPoint x="310" y="560" as="sourcePoint" />
            <mxPoint x="360" y="510" as="targetPoint" />
          </mxGeometry>
        </mxCell>
        <mxCell id="0sxTZYZ9TAEr3WeOtwBN-73" value="" style="endArrow=none;html=1;entryX=1;entryY=1;entryDx=0;entryDy=0;" parent="1" target="0sxTZYZ9TAEr3WeOtwBN-67" edge="1">
          <mxGeometry width="50" height="50" relative="1" as="geometry">
            <mxPoint x="415" y="560" as="sourcePoint" />
            <mxPoint x="465" y="510" as="targetPoint" />
          </mxGeometry>
        </mxCell>
        <mxCell id="0sxTZYZ9TAEr3WeOtwBN-74" value="" style="endArrow=none;html=1;entryX=1;entryY=0.5;entryDx=0;entryDy=0;" parent="1" target="0sxTZYZ9TAEr3WeOtwBN-69" edge="1">
          <mxGeometry width="50" height="50" relative="1" as="geometry">
            <mxPoint x="544" y="560" as="sourcePoint" />
            <mxPoint x="594" y="510" as="targetPoint" />
          </mxGeometry>
        </mxCell>
        <mxCell id="0sxTZYZ9TAEr3WeOtwBN-75" value="&lt;font style=&quot;font-size: 12px&quot;&gt;SongID&lt;/font&gt;" style="ellipse;whiteSpace=wrap;html=1;align=center;fontStyle=4;fontSize=17;" parent="1" vertex="1">
          <mxGeometry x="70" y="500" width="60" height="30" as="geometry" />
        </mxCell>
        <mxCell id="0sxTZYZ9TAEr3WeOtwBN-80" value="&lt;font style=&quot;font-size: 12px&quot;&gt;SongID&lt;/font&gt;" style="ellipse;whiteSpace=wrap;html=1;align=center;fontStyle=4;fontSize=17;" parent="1" vertex="1">
          <mxGeometry x="560" y="500" width="60" height="30" as="geometry" />
        </mxCell>
        <mxCell id="0sxTZYZ9TAEr3WeOtwBN-81" value="&lt;font style=&quot;font-size: 12px&quot;&gt;SongID&lt;/font&gt;" style="ellipse;whiteSpace=wrap;html=1;align=center;fontStyle=4;fontSize=17;" parent="1" vertex="1">
          <mxGeometry x="396" y="500" width="60" height="30" as="geometry" />
        </mxCell>
        <mxCell id="0sxTZYZ9TAEr3WeOtwBN-82" value="&lt;font style=&quot;font-size: 12px&quot;&gt;SongID&lt;/font&gt;" style="ellipse;whiteSpace=wrap;html=1;align=center;fontStyle=4;fontSize=17;" parent="1" vertex="1">
          <mxGeometry x="264" y="510" width="60" height="30" as="geometry" />
        </mxCell>
        <mxCell id="0sxTZYZ9TAEr3WeOtwBN-83" value="&lt;font style=&quot;font-size: 12px&quot;&gt;SongID&lt;/font&gt;" style="ellipse;whiteSpace=wrap;html=1;align=center;fontStyle=4;fontSize=17;" parent="1" vertex="1">
          <mxGeometry x="181" y="510" width="60" height="30" as="geometry" />
        </mxCell>
        <mxCell id="0sxTZYZ9TAEr3WeOtwBN-84" value="" style="endArrow=none;html=1;exitX=0.5;exitY=0;exitDx=0;exitDy=0;" parent="1" source="0sxTZYZ9TAEr3WeOtwBN-1" edge="1">
          <mxGeometry width="50" height="50" relative="1" as="geometry">
            <mxPoint x="340" y="10" as="sourcePoint" />
            <mxPoint x="390" y="-40" as="targetPoint" />
          </mxGeometry>
        </mxCell>
        <mxCell id="0sxTZYZ9TAEr3WeOtwBN-85" value="" style="endArrow=none;html=1;entryX=0;entryY=0.5;entryDx=0;entryDy=0;" parent="1" target="0sxTZYZ9TAEr3WeOtwBN-29" edge="1">
          <mxGeometry width="50" height="50" relative="1" as="geometry">
            <mxPoint x="370" y="20" as="sourcePoint" />
            <mxPoint x="400" y="-30" as="targetPoint" />
          </mxGeometry>
        </mxCell>
        <mxCell id="0sxTZYZ9TAEr3WeOtwBN-86" value="" style="endArrow=none;html=1;exitX=0.75;exitY=0;exitDx=0;exitDy=0;entryX=0;entryY=1;entryDx=0;entryDy=0;" parent="1" source="0sxTZYZ9TAEr3WeOtwBN-1" target="0sxTZYZ9TAEr3WeOtwBN-31" edge="1">
          <mxGeometry width="50" height="50" relative="1" as="geometry">
            <mxPoint x="430" y="22" as="sourcePoint" />
            <mxPoint x="480" y="-38" as="targetPoint" />
          </mxGeometry>
        </mxCell>
        <mxCell id="0sxTZYZ9TAEr3WeOtwBN-87" value="" style="endArrow=none;html=1;entryX=0;entryY=0.5;entryDx=0;entryDy=0;exitX=1;exitY=0.5;exitDx=0;exitDy=0;" parent="1" source="0sxTZYZ9TAEr3WeOtwBN-1" target="0sxTZYZ9TAEr3WeOtwBN-28" edge="1">
          <mxGeometry width="50" height="50" relative="1" as="geometry">
            <mxPoint x="405" y="62" as="sourcePoint" />
            <mxPoint x="455" y="12" as="targetPoint" />
          </mxGeometry>
        </mxCell>
        <mxCell id="0sxTZYZ9TAEr3WeOtwBN-88" value="" style="endArrow=none;html=1;exitX=1;exitY=0.75;exitDx=0;exitDy=0;entryX=0;entryY=0.5;entryDx=0;entryDy=0;" parent="1" source="0sxTZYZ9TAEr3WeOtwBN-1" target="0sxTZYZ9TAEr3WeOtwBN-27" edge="1">
          <mxGeometry width="50" height="50" relative="1" as="geometry">
            <mxPoint x="385" y="95" as="sourcePoint" />
            <mxPoint x="435" y="45" as="targetPoint" />
          </mxGeometry>
        </mxCell>
        <mxCell id="0sxTZYZ9TAEr3WeOtwBN-89" value="&lt;font style=&quot;font-size: 12px&quot;&gt;ArtistBio&lt;/font&gt;" style="ellipse;whiteSpace=wrap;html=1;align=center;fontSize=17;" parent="1" vertex="1">
          <mxGeometry x="-40" y="244" width="60" height="30" as="geometry" />
        </mxCell>
        <mxCell id="0sxTZYZ9TAEr3WeOtwBN-90" value="&lt;font style=&quot;font-size: 12px&quot;&gt;Payment&lt;/font&gt;" style="ellipse;whiteSpace=wrap;html=1;align=center;fontSize=17;" parent="1" vertex="1">
          <mxGeometry x="30" y="240" width="60" height="30" as="geometry" />
        </mxCell>
        <mxCell id="0sxTZYZ9TAEr3WeOtwBN-91" value="" style="endArrow=none;html=1;entryX=1;entryY=0.5;entryDx=0;entryDy=0;exitX=0;exitY=0;exitDx=0;exitDy=0;" parent="1" source="0sxTZYZ9TAEr3WeOtwBN-8" target="0sxTZYZ9TAEr3WeOtwBN-37" edge="1">
          <mxGeometry width="50" height="50" relative="1" as="geometry">
            <mxPoint x="140" y="240" as="sourcePoint" />
            <mxPoint x="190" y="190" as="targetPoint" />
          </mxGeometry>
        </mxCell>
        <mxCell id="0sxTZYZ9TAEr3WeOtwBN-92" value="" style="endArrow=none;html=1;entryX=1;entryY=0.5;entryDx=0;entryDy=0;exitX=0;exitY=0.25;exitDx=0;exitDy=0;" parent="1" source="0sxTZYZ9TAEr3WeOtwBN-8" target="0sxTZYZ9TAEr3WeOtwBN-36" edge="1">
          <mxGeometry width="50" height="50" relative="1" as="geometry">
            <mxPoint x="120" y="180" as="sourcePoint" />
            <mxPoint x="70" y="100" as="targetPoint" />
          </mxGeometry>
        </mxCell>
        <mxCell id="0sxTZYZ9TAEr3WeOtwBN-93" value="" style="endArrow=none;html=1;entryX=1;entryY=0.5;entryDx=0;entryDy=0;exitX=0;exitY=0.5;exitDx=0;exitDy=0;" parent="1" source="0sxTZYZ9TAEr3WeOtwBN-8" target="0sxTZYZ9TAEr3WeOtwBN-35" edge="1">
          <mxGeometry width="50" height="50" relative="1" as="geometry">
            <mxPoint x="150" y="170" as="sourcePoint" />
            <mxPoint x="20" y="105" as="targetPoint" />
          </mxGeometry>
        </mxCell>
        <mxCell id="0sxTZYZ9TAEr3WeOtwBN-94" value="" style="endArrow=none;html=1;entryX=1;entryY=0;entryDx=0;entryDy=0;" parent="1" target="0sxTZYZ9TAEr3WeOtwBN-34" edge="1">
          <mxGeometry width="50" height="50" relative="1" as="geometry">
            <mxPoint x="140" y="180" as="sourcePoint" />
            <mxPoint x="30" y="115" as="targetPoint" />
          </mxGeometry>
        </mxCell>
        <mxCell id="0sxTZYZ9TAEr3WeOtwBN-95" value="" style="endArrow=none;html=1;entryX=1;entryY=0.5;entryDx=0;entryDy=0;exitX=0;exitY=1;exitDx=0;exitDy=0;" parent="1" source="0sxTZYZ9TAEr3WeOtwBN-8" target="0sxTZYZ9TAEr3WeOtwBN-33" edge="1">
          <mxGeometry width="50" height="50" relative="1" as="geometry">
            <mxPoint x="170" y="190" as="sourcePoint" />
            <mxPoint x="40" y="125" as="targetPoint" />
          </mxGeometry>
        </mxCell>
        <mxCell id="0sxTZYZ9TAEr3WeOtwBN-96" value="" style="endArrow=none;html=1;entryX=1;entryY=0.5;entryDx=0;entryDy=0;exitX=0.25;exitY=1;exitDx=0;exitDy=0;" parent="1" source="0sxTZYZ9TAEr3WeOtwBN-8" target="0sxTZYZ9TAEr3WeOtwBN-26" edge="1">
          <mxGeometry width="50" height="50" relative="1" as="geometry">
            <mxPoint x="180" y="200" as="sourcePoint" />
            <mxPoint x="50" y="135" as="targetPoint" />
          </mxGeometry>
        </mxCell>
        <mxCell id="0sxTZYZ9TAEr3WeOtwBN-97" value="" style="endArrow=none;html=1;entryX=0.5;entryY=0;entryDx=0;entryDy=0;exitX=0.25;exitY=1;exitDx=0;exitDy=0;" parent="1" source="0sxTZYZ9TAEr3WeOtwBN-8" target="0sxTZYZ9TAEr3WeOtwBN-89" edge="1">
          <mxGeometry width="50" height="50" relative="1" as="geometry">
            <mxPoint x="175" y="200" as="sourcePoint" />
            <mxPoint x="30" y="225" as="targetPoint" />
          </mxGeometry>
        </mxCell>
        <mxCell id="0sxTZYZ9TAEr3WeOtwBN-98" value="" style="endArrow=none;html=1;entryX=0.5;entryY=0;entryDx=0;entryDy=0;exitX=0.25;exitY=1;exitDx=0;exitDy=0;" parent="1" source="0sxTZYZ9TAEr3WeOtwBN-8" target="0sxTZYZ9TAEr3WeOtwBN-90" edge="1">
          <mxGeometry width="50" height="50" relative="1" as="geometry">
            <mxPoint x="185" y="210" as="sourcePoint" />
            <mxPoint x="40" y="235" as="targetPoint" />
          </mxGeometry>
        </mxCell>
        <mxCell id="0sxTZYZ9TAEr3WeOtwBN-99" value="&lt;font style=&quot;font-size: 12px&quot;&gt;Payment&lt;/font&gt;" style="ellipse;whiteSpace=wrap;html=1;align=center;fontSize=17;" parent="1" vertex="1">
          <mxGeometry x="590" y="214" width="60" height="30" as="geometry" />
        </mxCell>
        <mxCell id="0sxTZYZ9TAEr3WeOtwBN-100" value="" style="endArrow=none;html=1;fontSize=12;exitX=0.5;exitY=0;exitDx=0;exitDy=0;" parent="1" source="0sxTZYZ9TAEr3WeOtwBN-7" edge="1">
          <mxGeometry width="50" height="50" relative="1" as="geometry">
            <mxPoint x="540" y="150" as="sourcePoint" />
            <mxPoint x="590" y="100" as="targetPoint" />
          </mxGeometry>
        </mxCell>
        <mxCell id="0sxTZYZ9TAEr3WeOtwBN-101" value="" style="endArrow=none;html=1;fontSize=12;exitX=0.75;exitY=0;exitDx=0;exitDy=0;entryX=0;entryY=0.5;entryDx=0;entryDy=0;" parent="1" source="0sxTZYZ9TAEr3WeOtwBN-7" target="0sxTZYZ9TAEr3WeOtwBN-42" edge="1">
          <mxGeometry width="50" height="50" relative="1" as="geometry">
            <mxPoint x="510" y="160" as="sourcePoint" />
            <mxPoint x="600" y="110" as="targetPoint" />
          </mxGeometry>
        </mxCell>
        <mxCell id="0sxTZYZ9TAEr3WeOtwBN-102" value="" style="endArrow=none;html=1;fontSize=12;entryX=0;entryY=0.5;entryDx=0;entryDy=0;" parent="1" target="0sxTZYZ9TAEr3WeOtwBN-41" edge="1">
          <mxGeometry width="50" height="50" relative="1" as="geometry">
            <mxPoint x="550" y="160" as="sourcePoint" />
            <mxPoint x="610" y="120" as="targetPoint" />
          </mxGeometry>
        </mxCell>
        <mxCell id="0sxTZYZ9TAEr3WeOtwBN-103" value="" style="endArrow=none;html=1;fontSize=12;exitX=1;exitY=0.5;exitDx=0;exitDy=0;entryX=0;entryY=0.5;entryDx=0;entryDy=0;" parent="1" source="0sxTZYZ9TAEr3WeOtwBN-7" target="0sxTZYZ9TAEr3WeOtwBN-40" edge="1">
          <mxGeometry width="50" height="50" relative="1" as="geometry">
            <mxPoint x="530" y="180" as="sourcePoint" />
            <mxPoint x="620" y="130" as="targetPoint" />
          </mxGeometry>
        </mxCell>
        <mxCell id="0sxTZYZ9TAEr3WeOtwBN-104" value="" style="endArrow=none;html=1;fontSize=12;exitX=1;exitY=0.75;exitDx=0;exitDy=0;entryX=0;entryY=0;entryDx=0;entryDy=0;" parent="1" source="0sxTZYZ9TAEr3WeOtwBN-7" target="0sxTZYZ9TAEr3WeOtwBN-39" edge="1">
          <mxGeometry width="50" height="50" relative="1" as="geometry">
            <mxPoint x="540" y="190" as="sourcePoint" />
            <mxPoint x="630" y="140" as="targetPoint" />
          </mxGeometry>
        </mxCell>
        <mxCell id="0sxTZYZ9TAEr3WeOtwBN-105" value="" style="endArrow=none;html=1;fontSize=12;exitX=1;exitY=1;exitDx=0;exitDy=0;entryX=0;entryY=0;entryDx=0;entryDy=0;" parent="1" source="0sxTZYZ9TAEr3WeOtwBN-7" target="0sxTZYZ9TAEr3WeOtwBN-38" edge="1">
          <mxGeometry width="50" height="50" relative="1" as="geometry">
            <mxPoint x="550" y="200" as="sourcePoint" />
            <mxPoint x="640" y="150" as="targetPoint" />
          </mxGeometry>
        </mxCell>
        <mxCell id="0sxTZYZ9TAEr3WeOtwBN-106" value="" style="endArrow=none;html=1;fontSize=12;entryX=0;entryY=0;entryDx=0;entryDy=0;exitX=0.837;exitY=1.092;exitDx=0;exitDy=0;exitPerimeter=0;" parent="1" source="0sxTZYZ9TAEr3WeOtwBN-7" target="0sxTZYZ9TAEr3WeOtwBN-99" edge="1">
          <mxGeometry width="50" height="50" relative="1" as="geometry">
            <mxPoint x="530" y="220" as="sourcePoint" />
            <mxPoint x="650" y="160" as="targetPoint" />
          </mxGeometry>
        </mxCell>
        <mxCell id="0sxTZYZ9TAEr3WeOtwBN-107" value="" style="endArrow=none;html=1;fontSize=12;exitX=0.5;exitY=0;exitDx=0;exitDy=0;entryX=0.5;entryY=1;entryDx=0;entryDy=0;" parent="1" source="0sxTZYZ9TAEr3WeOtwBN-53" target="0sxTZYZ9TAEr3WeOtwBN-7" edge="1">
          <mxGeometry width="50" height="50" relative="1" as="geometry">
            <mxPoint x="570" y="220" as="sourcePoint" />
            <mxPoint x="660" y="170" as="targetPoint" />
          </mxGeometry>
        </mxCell>
        <mxCell id="0sxTZYZ9TAEr3WeOtwBN-108" value="" style="endArrow=none;html=1;fontSize=12;exitX=0.5;exitY=0;exitDx=0;exitDy=0;entryX=0.5;entryY=1;entryDx=0;entryDy=0;" parent="1" source="0sxTZYZ9TAEr3WeOtwBN-52" target="0sxTZYZ9TAEr3WeOtwBN-8" edge="1">
          <mxGeometry width="50" height="50" relative="1" as="geometry">
            <mxPoint x="580" y="230" as="sourcePoint" />
            <mxPoint x="670" y="180" as="targetPoint" />
          </mxGeometry>
        </mxCell>
        <mxCell id="0sxTZYZ9TAEr3WeOtwBN-109" value="" style="endArrow=none;html=1;fontSize=12;entryX=0.25;entryY=0;entryDx=0;entryDy=0;exitX=0;exitY=0.5;exitDx=0;exitDy=0;" parent="1" source="0sxTZYZ9TAEr3WeOtwBN-54" target="0sxTZYZ9TAEr3WeOtwBN-1" edge="1">
          <mxGeometry width="50" height="50" relative="1" as="geometry">
            <mxPoint x="470" y="230" as="sourcePoint" />
            <mxPoint x="520" y="180" as="targetPoint" />
            <Array as="points">
              <mxPoint x="-150" y="380" />
              <mxPoint x="-150" y="250" />
              <mxPoint x="-150" />
              <mxPoint x="80" />
              <mxPoint x="200" />
              <mxPoint x="270" />
              <mxPoint x="310" />
            </Array>
          </mxGeometry>
        </mxCell>
        <mxCell id="0sxTZYZ9TAEr3WeOtwBN-110" value="ListenToSong" style="shape=rhombus;perimeter=rhombusPerimeter;whiteSpace=wrap;html=1;align=center;rounded=0;sketch=0;" parent="1" vertex="1">
          <mxGeometry x="-193" y="171" width="88" height="59" as="geometry" />
        </mxCell>
        <mxCell id="0sxTZYZ9TAEr3WeOtwBN-111" value="&lt;font style=&quot;font-size: 14px&quot;&gt;Song type&lt;/font&gt;" style="text;html=1;strokeColor=none;fillColor=none;align=center;verticalAlign=middle;whiteSpace=wrap;rounded=0;sketch=0;fontSize=12;" parent="1" vertex="1">
          <mxGeometry x="360" y="410" width="73" height="20" as="geometry" />
        </mxCell>
        <mxCell id="0sxTZYZ9TAEr3WeOtwBN-114" value="" style="endArrow=none;html=1;fontSize=12;entryX=0.5;entryY=1;entryDx=0;entryDy=0;exitX=0.5;exitY=0;exitDx=0;exitDy=0;" parent="1" source="0sxTZYZ9TAEr3WeOtwBN-10" target="0sxTZYZ9TAEr3WeOtwBN-80" edge="1">
          <mxGeometry width="50" height="50" relative="1" as="geometry">
            <mxPoint x="550" y="460" as="sourcePoint" />
            <mxPoint x="600" y="410" as="targetPoint" />
          </mxGeometry>
        </mxCell>
        <mxCell id="0sxTZYZ9TAEr3WeOtwBN-115" value="" style="endArrow=none;html=1;fontSize=12;entryX=1;entryY=1;entryDx=0;entryDy=0;exitX=0.75;exitY=0;exitDx=0;exitDy=0;" parent="1" source="0sxTZYZ9TAEr3WeOtwBN-12" target="0sxTZYZ9TAEr3WeOtwBN-81" edge="1">
          <mxGeometry width="50" height="50" relative="1" as="geometry">
            <mxPoint x="605" y="570" as="sourcePoint" />
            <mxPoint x="605.7241379310672" y="540.3448275862224" as="targetPoint" />
          </mxGeometry>
        </mxCell>
        <mxCell id="0sxTZYZ9TAEr3WeOtwBN-117" value="" style="endArrow=none;html=1;fontSize=12;entryX=0;entryY=1;entryDx=0;entryDy=0;exitX=0.5;exitY=0;exitDx=0;exitDy=0;" parent="1" source="0sxTZYZ9TAEr3WeOtwBN-11" target="0sxTZYZ9TAEr3WeOtwBN-82" edge="1">
          <mxGeometry width="50" height="50" relative="1" as="geometry">
            <mxPoint x="615" y="580" as="sourcePoint" />
            <mxPoint x="615.7241379310672" y="550.3448275862224" as="targetPoint" />
          </mxGeometry>
        </mxCell>
        <mxCell id="0sxTZYZ9TAEr3WeOtwBN-118" value="" style="endArrow=none;html=1;fontSize=12;entryX=0.5;entryY=1;entryDx=0;entryDy=0;exitX=0.25;exitY=0;exitDx=0;exitDy=0;" parent="1" source="0sxTZYZ9TAEr3WeOtwBN-9" target="0sxTZYZ9TAEr3WeOtwBN-83" edge="1">
          <mxGeometry width="50" height="50" relative="1" as="geometry">
            <mxPoint x="625" y="590" as="sourcePoint" />
            <mxPoint x="625.7241379310672" y="560.3448275862224" as="targetPoint" />
          </mxGeometry>
        </mxCell>
        <mxCell id="0sxTZYZ9TAEr3WeOtwBN-119" value="" style="endArrow=none;html=1;fontSize=12;entryX=0.5;entryY=1;entryDx=0;entryDy=0;exitX=0.25;exitY=0;exitDx=0;exitDy=0;" parent="1" source="0sxTZYZ9TAEr3WeOtwBN-6" target="0sxTZYZ9TAEr3WeOtwBN-75" edge="1">
          <mxGeometry width="50" height="50" relative="1" as="geometry">
            <mxPoint x="635" y="600" as="sourcePoint" />
            <mxPoint x="635.7241379310672" y="570.3448275862224" as="targetPoint" />
          </mxGeometry>
        </mxCell>
        <mxCell id="0sxTZYZ9TAEr3WeOtwBN-120" value="&lt;font style=&quot;font-size: 17px&quot;&gt;Has&lt;/font&gt;" style="shape=rhombus;perimeter=rhombusPerimeter;whiteSpace=wrap;html=1;align=center;rounded=0;sketch=0;fontSize=12;" parent="1" vertex="1">
          <mxGeometry x="470" y="360" width="94" height="50" as="geometry" />
        </mxCell>
        <mxCell id="VvCZH7E7l-zjrs6qnc7r-1" value="" style="endArrow=none;html=1;entryX=0;entryY=0.5;entryDx=0;entryDy=0;" edge="1" parent="1" target="0sxTZYZ9TAEr3WeOtwBN-120">
          <mxGeometry width="50" height="50" relative="1" as="geometry">
            <mxPoint x="400" y="384" as="sourcePoint" />
            <mxPoint x="420" y="430" as="targetPoint" />
          </mxGeometry>
        </mxCell>
        <mxCell id="VvCZH7E7l-zjrs6qnc7r-2" value="&lt;font style=&quot;font-size: 16px&quot;&gt;Mood&lt;/font&gt;" style="whiteSpace=wrap;html=1;align=center;" vertex="1" parent="1">
          <mxGeometry x="650" y="365" width="100" height="40" as="geometry" />
        </mxCell>
        <mxCell id="VvCZH7E7l-zjrs6qnc7r-3" value="&lt;font style=&quot;font-size: 16px&quot;&gt;Genre&lt;/font&gt;" style="whiteSpace=wrap;html=1;align=center;" vertex="1" parent="1">
          <mxGeometry x="630" y="460" width="100" height="40" as="geometry" />
        </mxCell>
        <mxCell id="VvCZH7E7l-zjrs6qnc7r-4" value="" style="endArrow=none;html=1;entryX=1;entryY=0.5;entryDx=0;entryDy=0;exitX=0;exitY=0.5;exitDx=0;exitDy=0;" edge="1" parent="1" source="VvCZH7E7l-zjrs6qnc7r-2" target="0sxTZYZ9TAEr3WeOtwBN-120">
          <mxGeometry width="50" height="50" relative="1" as="geometry">
            <mxPoint x="370" y="480" as="sourcePoint" />
            <mxPoint x="420" y="430" as="targetPoint" />
          </mxGeometry>
        </mxCell>
        <mxCell id="VvCZH7E7l-zjrs6qnc7r-6" value="" style="endArrow=none;html=1;entryX=0.5;entryY=1;entryDx=0;entryDy=0;exitX=0;exitY=0.5;exitDx=0;exitDy=0;" edge="1" parent="1" source="VvCZH7E7l-zjrs6qnc7r-3" target="0sxTZYZ9TAEr3WeOtwBN-120">
          <mxGeometry width="50" height="50" relative="1" as="geometry">
            <mxPoint x="640" y="440" as="sourcePoint" />
            <mxPoint x="420" y="430" as="targetPoint" />
          </mxGeometry>
        </mxCell>
        <mxCell id="VvCZH7E7l-zjrs6qnc7r-7" value="&lt;font style=&quot;font-size: 12px&quot;&gt;MoodID&lt;/font&gt;" style="ellipse;whiteSpace=wrap;html=1;align=center;fontSize=17;fontStyle=4" vertex="1" parent="1">
          <mxGeometry x="650" y="279" width="60" height="30" as="geometry" />
        </mxCell>
        <mxCell id="VvCZH7E7l-zjrs6qnc7r-8" value="&lt;font style=&quot;font-size: 12px&quot;&gt;TotalSongs&lt;/font&gt;" style="ellipse;whiteSpace=wrap;html=1;align=center;fontSize=17;" vertex="1" parent="1">
          <mxGeometry x="730" y="303" width="60" height="30" as="geometry" />
        </mxCell>
        <mxCell id="VvCZH7E7l-zjrs6qnc7r-9" value="&lt;font style=&quot;font-size: 12px&quot;&gt;MoodName&lt;/font&gt;" style="ellipse;whiteSpace=wrap;html=1;align=center;fontSize=17;" vertex="1" parent="1">
          <mxGeometry x="590" y="320" width="60" height="30" as="geometry" />
        </mxCell>
        <mxCell id="VvCZH7E7l-zjrs6qnc7r-10" value="&lt;font style=&quot;font-size: 12px&quot;&gt;TotalSongs&lt;/font&gt;" style="ellipse;whiteSpace=wrap;html=1;align=center;fontSize=17;" vertex="1" parent="1">
          <mxGeometry x="650" y="565" width="60" height="30" as="geometry" />
        </mxCell>
        <mxCell id="VvCZH7E7l-zjrs6qnc7r-11" value="&lt;font style=&quot;font-size: 12px&quot;&gt;GenreName&lt;/font&gt;" style="ellipse;whiteSpace=wrap;html=1;align=center;fontSize=17;" vertex="1" parent="1">
          <mxGeometry x="730" y="540" width="60" height="30" as="geometry" />
        </mxCell>
        <mxCell id="VvCZH7E7l-zjrs6qnc7r-12" value="&lt;font style=&quot;font-size: 12px&quot;&gt;&lt;u&gt;GenreID&lt;/u&gt;&lt;/font&gt;" style="ellipse;whiteSpace=wrap;html=1;align=center;fontSize=17;" vertex="1" parent="1">
          <mxGeometry x="760" y="480" width="60" height="30" as="geometry" />
        </mxCell>
        <mxCell id="VvCZH7E7l-zjrs6qnc7r-14" value="" style="endArrow=none;html=1;entryX=0.5;entryY=1;entryDx=0;entryDy=0;exitX=1;exitY=0;exitDx=0;exitDy=0;" edge="1" parent="1" source="VvCZH7E7l-zjrs6qnc7r-2" target="VvCZH7E7l-zjrs6qnc7r-8">
          <mxGeometry width="50" height="50" relative="1" as="geometry">
            <mxPoint x="370" y="480" as="sourcePoint" />
            <mxPoint x="420" y="430" as="targetPoint" />
          </mxGeometry>
        </mxCell>
        <mxCell id="VvCZH7E7l-zjrs6qnc7r-15" value="" style="endArrow=none;html=1;exitX=0.5;exitY=0;exitDx=0;exitDy=0;" edge="1" parent="1" source="VvCZH7E7l-zjrs6qnc7r-2">
          <mxGeometry width="50" height="50" relative="1" as="geometry">
            <mxPoint x="370" y="480" as="sourcePoint" />
            <mxPoint x="680" y="310" as="targetPoint" />
          </mxGeometry>
        </mxCell>
        <mxCell id="VvCZH7E7l-zjrs6qnc7r-16" value="" style="endArrow=none;html=1;entryX=0.5;entryY=1;entryDx=0;entryDy=0;exitX=0.25;exitY=0;exitDx=0;exitDy=0;" edge="1" parent="1" source="VvCZH7E7l-zjrs6qnc7r-2" target="VvCZH7E7l-zjrs6qnc7r-9">
          <mxGeometry width="50" height="50" relative="1" as="geometry">
            <mxPoint x="370" y="480" as="sourcePoint" />
            <mxPoint x="420" y="430" as="targetPoint" />
          </mxGeometry>
        </mxCell>
        <mxCell id="VvCZH7E7l-zjrs6qnc7r-17" value="" style="endArrow=none;html=1;entryX=0;entryY=0.5;entryDx=0;entryDy=0;exitX=1;exitY=0.5;exitDx=0;exitDy=0;" edge="1" parent="1" source="VvCZH7E7l-zjrs6qnc7r-3" target="VvCZH7E7l-zjrs6qnc7r-12">
          <mxGeometry width="50" height="50" relative="1" as="geometry">
            <mxPoint x="370" y="480" as="sourcePoint" />
            <mxPoint x="420" y="430" as="targetPoint" />
          </mxGeometry>
        </mxCell>
        <mxCell id="VvCZH7E7l-zjrs6qnc7r-18" value="" style="endArrow=none;html=1;entryX=0.5;entryY=0;entryDx=0;entryDy=0;exitX=0.75;exitY=1;exitDx=0;exitDy=0;" edge="1" parent="1" source="VvCZH7E7l-zjrs6qnc7r-3" target="VvCZH7E7l-zjrs6qnc7r-11">
          <mxGeometry width="50" height="50" relative="1" as="geometry">
            <mxPoint x="370" y="480" as="sourcePoint" />
            <mxPoint x="420" y="430" as="targetPoint" />
          </mxGeometry>
        </mxCell>
        <mxCell id="VvCZH7E7l-zjrs6qnc7r-19" value="" style="endArrow=none;html=1;entryX=0.5;entryY=0;entryDx=0;entryDy=0;exitX=0.5;exitY=1;exitDx=0;exitDy=0;" edge="1" parent="1" source="VvCZH7E7l-zjrs6qnc7r-3" target="VvCZH7E7l-zjrs6qnc7r-10">
          <mxGeometry width="50" height="50" relative="1" as="geometry">
            <mxPoint x="370" y="480" as="sourcePoint" />
            <mxPoint x="420" y="430" as="targetPoint" />
          </mxGeometry>
        </mxCell>
      </root>
    </mxGraphModel>
  </diagram>
</mxfile>
